<svg width="178" height="71" viewBox="0 0 178 71" fill="none" xmlns="http://www.w3.org/2000/svg">
<path d="M32.1875 1.75V70H16.3906V19.5625L0.828125 24.1094V12.1094L30.7344 1.75H32.1875ZM100.297 51.2031C100.297 55.5469 99.2656 59.1875 97.2031 62.125C95.1719 65.0625 92.3594 67.2656 88.7656 68.7344C85.2031 70.2031 81.1406 70.9375 76.5781 70.9375C72.0469 70.9375 67.9688 70.2031 64.3438 68.7344C60.75 67.2656 57.9062 65.0625 55.8125 62.125C53.7188 59.1875 52.6719 55.5469 52.6719 51.2031C52.6719 48.2344 53.2656 45.5781 54.4531 43.2344C55.6719 40.8594 57.3594 38.8438 59.5156 37.1875C61.6719 35.5312 64.1875 34.2656 67.0625 33.3906C69.9688 32.5156 73.1094 32.0781 76.4844 32.0781C81.0469 32.0781 85.125 32.8594 88.7188 34.4219C92.3125 35.9531 95.1406 38.1406 97.2031 40.9844C99.2656 43.8281 100.297 47.2344 100.297 51.2031ZM84.4062 49.9375C84.4062 48.0625 84.0781 46.4844 83.4219 45.2031C82.7656 43.8906 81.8438 42.8906 80.6562 42.2031C79.4688 41.5156 78.0781 41.1719 76.4844 41.1719C74.9219 41.1719 73.5312 41.5156 72.3125 42.2031C71.125 42.8906 70.1875 43.8906 69.5 45.2031C68.8438 46.4844 68.5156 48.0625 68.5156 49.9375C68.5156 51.75 68.8594 53.3281 69.5469 54.6719C70.2344 55.9844 71.1719 57 72.3594 57.7188C73.5781 58.4062 74.9844 58.75 76.5781 58.75C78.1719 58.75 79.5469 58.4062 80.7031 57.7188C81.8906 57 82.7969 55.9844 83.4219 54.6719C84.0781 53.3281 84.4062 51.75 84.4062 49.9375ZM98.8906 19.9844C98.8906 23.5469 97.9375 26.6719 96.0312 29.3594C94.1562 32.0156 91.5312 34.0938 88.1562 35.5938C84.8125 37.0625 80.9531 37.7969 76.5781 37.7969C72.2344 37.7969 68.3594 37.0625 64.9531 35.5938C61.5781 34.0938 58.9219 32.0156 56.9844 29.3594C55.0781 26.6719 54.125 23.5469 54.125 19.9844C54.125 15.7969 55.0781 12.2813 56.9844 9.4375C58.9219 6.59375 61.5781 4.4375 64.9531 2.96875C68.3281 1.5 72.1719 0.765625 76.4844 0.765625C80.8594 0.765625 84.7344 1.5 88.1094 2.96875C91.4844 4.4375 94.125 6.59375 96.0312 9.4375C97.9375 12.2813 98.8906 15.7969 98.8906 19.9844ZM83.0938 20.8281C83.0938 19.2031 82.8438 17.8125 82.3438 16.6562C81.8438 15.4688 81.1094 14.5625 80.1406 13.9375C79.1719 13.2812 77.9531 12.9531 76.4844 12.9531C75.0781 12.9531 73.8906 13.2656 72.9219 13.8906C71.9531 14.5156 71.2188 15.4219 70.7188 16.6094C70.2188 17.7656 69.9688 19.1719 69.9688 20.8281C69.9688 22.4531 70.2188 23.875 70.7188 25.0938C71.2188 26.3125 71.9531 27.2656 72.9219 27.9531C73.9219 28.6406 75.1406 28.9844 76.5781 28.9844C78.0469 28.9844 79.25 28.6406 80.1875 27.9531C81.1562 27.2656 81.875 26.3125 82.3438 25.0938C82.8438 23.875 83.0938 22.4531 83.0938 20.8281ZM177.172 31.2812V44.8281H130.391V31.2812H177.172ZM161.234 13.4688V63.1562H146.469V13.4688H161.234Z" fill="url(#paint0_linear_1_14)"/>
<defs>
<linearGradient id="paint0_linear_1_14" x1="172.5" y1="25" x2="5" y2="25" gradientUnits="userSpaceOnUse">
<stop offset="0.354167" stop-color="#FD0000"/>
<stop offset="0.734375" stop-color="#FF9845"/>
</linearGradient>
</defs>
</svg>
